PathFileType	4	(X/Y/Z)	C:/Users/opensim2020/Desktop/walking_exp_matlab/subject01_walking09_straight_01.trc	
DataRate	CameraRate	NumFrames	NumMarkers	Units	OrigDataRate	OrigDataStartFrame	OrigNumFrames	
100.00	100.00	4	43	mm	100.00	1196	485	
Frame#	Time	LFHD			RFHD			LBHD			RBHD			C7			T10			CLAV			STRN			RBAK			LSHO			LUPA			LELB			LFRM			LWRA			LWRB			LFIN			RSHO			RUPA			RELB			RFRM			RWRA			RWRB			RFIN			LASI			RASI			LPSI			RPSI			LTHI			LKNE			LTIB			LANK			LHEE			LTOE			RTHI			RKNE			RTIB			RANK			RHEE			RTOE			*39			*40			*41			*42			
		X1	Y1	Z1	X2	Y2	Z2	X3	Y3	Z3	X4	Y4	Z4	X5	Y5	Z5	X6	Y6	Z6	X7	Y7	Z7	X8	Y8	Z8	X9	Y9	Z9	X10	Y10	Z10	X11	Y11	Z11	X12	Y12	Z12	X13	Y13	Z13	X14	Y14	Z14	X15	Y15	Z15	X16	Y16	Z16	X17	Y17	Z17	X18	Y18	Z18	X19	Y19	Z19	X20	Y20	Z20	X21	Y21	Z21	X22	Y22	Z22	X23	Y23	Z23	X24	Y24	Z24	X25	Y25	Z25	X26	Y26	Z26	X27	Y27	Z27	X28	Y28	Z28	X29	Y29	Z29	X30	Y30	Z30	X31	Y31	Z31	X32	Y32	Z32	X33	Y33	Z33	X34	Y34	Z34	X35	Y35	Z35	X36	Y36	Z36	X37	Y37	Z37	X38	Y38	Z38	X39	Y39	Z39	X40	Y40	Z40	X41	Y41	Z41	X42	Y42	Z42	X43	Y43	Z43	

425	4.240	-1071.27441	1027.32312	1677.59961	-957.01862	1029.55347	1682.42078	-1075.57751	924.40894	1607.20435	-954.05115	924.11456	1610.33545	-1033.54114	909.99878	1432.23328	-1023.13525	874.70020	1138.91138	-1026.79822	1054.10193	1364.45129	-1034.70776	1096.20203	1207.95764	-959.44196	854.36237	1236.08154	-1189.35156	999.40790	1396.81580	-1280.86487	985.59027	1215.78650	-1292.50549	1000.25916	1063.06787	-1308.48340	1098.60486	997.54303	-1285.46191	1232.32190	964.21936	-1305.26892	1193.92737	922.68140	-1316.29016	1273.13269	898.53833	-877.40277	985.47919	1389.71899	-783.34271	920.84827	1187.75134	-786.20959	919.68121	1065.11755	-754.85852	932.88635	946.74469	-771.83069	996.82684	819.98322	-734.36292	953.53577	827.25446	-734.34064	980.59119	745.24799	-1134.35620	1037.18323	923.07410	-917.91296	1052.48230	935.30536	-1066.99829	854.94580	945.01373	-922.24200	867.29883	950.56732	-1172.66772	960.75421	591.53625	-1154.82800	929.44751	459.33395	-1158.44299	836.25464	293.61240	-1105.39856	751.93311	92.39413	-1051.94519	700.52948	71.81696	-1113.78406	888.37054	38.14096	-848.03912	1062.82666	611.33148	-876.83063	1110.01160	463.65469	-863.73499	1107.49658	288.83972	-905.41272	1148.98511	83.39324	-956.77515	1113.97693	34.32846	-904.87134	1293.55542	78.61656	-980.26990	1011.44055	1712.72473	-3101.98071	1973.08411	1023.54346	-3140.70044	2012.53613	1022.08069			 
426	4.250	-1069.52063	1033.00024	1677.14294	-955.10944	1035.19128	1681.92090	-1073.82483	930.24780	1606.48706	-952.30634	929.92535	1609.54651	-1031.67395	916.29443	1431.44446	-1021.29535	881.85345	1138.09180	-1024.93799	1060.69897	1364.12793	-1032.94177	1103.22473	1207.76599	-957.59784	861.29749	1235.12292	-1187.33496	1005.83600	1396.40149	-1279.09656	992.44183	1215.45557	-1290.78589	1006.79309	1062.63708	-1306.69641	1104.90186	996.86877	-1283.37366	1238.54944	963.17584	-1303.31165	1200.07263	921.64038	-1314.12244	1279.23718	897.39514	-875.46173	991.89191	1389.19043	-781.68317	927.27942	1187.14075	-784.56805	926.27466	1064.43738	-753.39050	939.90210	946.14539	-770.54626	1004.29260	819.53967	-733.16467	960.70428	826.55627	-733.10687	988.28076	744.68970	-1132.96802	1044.88452	922.78320	-916.41907	1060.29773	934.80194	-1065.26233	862.52380	944.41553	-920.63342	875.37225	949.89557	-1171.97363	966.51129	591.47241	-1154.36646	934.44537	459.27805	-1158.15295	839.70654	294.51984	-1106.07007	752.81720	94.15260	-1053.07642	700.81244	74.45296	-1113.94177	888.41815	38.12503	-847.62378	1069.56372	610.30756	-876.10608	1116.30688	462.41782	-864.05121	1112.45508	287.26065	-906.22284	1151.00537	82.23454	-957.20007	1114.46655	34.03489	-906.53461	1295.50806	74.21106	-978.30121	1017.16766	1712.37061	-3101.90210	1973.16467	1023.50720	-3140.63794	2012.62402	1022.10449			 
427	4.260	-1067.53967	1038.78259	1676.87109	-953.15234	1040.92749	1681.61963	-1072.06909	936.23816	1605.95532	-950.48450	935.76160	1608.93860	-1029.70020	922.49261	1430.86780	-1019.20776	889.09521	1137.20569	-1022.93695	1067.25000	1363.88391	-1031.04309	1110.28931	1207.68298	-955.68536	868.34418	1234.17297	-1185.35376	1012.24695	1396.04541	-1277.20349	999.19824	1215.10657	-1288.87500	1013.29651	1062.21082	-1304.79749	1111.19592	996.10077	-1281.31494	1244.65833	961.91760	-1301.43506	1206.07434	920.55896	-1311.96521	1285.20813	896.01599	-873.57489	998.35852	1388.63989	-779.88409	933.70758	1186.45764	-782.90881	933.06616	1063.69995	-751.84375	946.92920	945.33191	-769.16589	1011.86884	819.04205	-731.84430	968.14624	825.72839	-731.76404	996.32147	744.25751	-1131.47839	1052.89026	922.58289	-914.86530	1068.12024	934.41315	-1063.39050	870.31171	943.79889	-918.36377	883.20691	949.22101	-1171.14490	972.55701	591.34839	-1153.65173	939.64764	459.31284	-1158.15735	843.09772	295.62344	-1106.80127	753.86761	96.12669	-1053.75403	701.53723	76.94347	-1113.95239	888.64050	38.06246	-846.76794	1076.23425	609.37708	-875.40649	1122.96106	461.15942	-864.86224	1116.80054	286.02585	-906.89697	1153.36853	81.64508	-957.68195	1115.05835	34.38925	-907.19727	1297.50354	69.64024	-976.38892	1022.53864	1711.74683	-3101.93359	1973.11475	1023.42371	-3140.68237	2012.50098	1022.03235			 
428	4.270	-1065.56335	1044.57690	1676.89624	-951.18646	1046.63477	1681.52771	-1070.10107	942.25708	1605.62964	-948.52203	941.75079	1608.60583	-1027.59802	928.72345	1430.45544	-1017.19647	896.32983	1136.58289	-1020.82269	1073.82495	1363.78687	-1029.06348	1117.31152	1207.82410	-953.80426	875.29303	1233.54688	-1183.41431	1018.64740	1395.80627	-1275.17517	1005.91107	1214.84155	-1286.85352	1019.72955	1061.83740	-1302.76953	1117.37488	995.35339	-1279.25732	1250.64087	960.49066	-1299.48254	1211.93262	919.32123	-1309.85059	1291.00073	894.44440	-871.47742	1004.81677	1388.28479	-778.01630	940.10687	1185.82312	-781.08820	939.77142	1063.00769	-750.18237	954.18231	944.61017	-767.75299	1019.68842	818.61768	-730.41559	975.94867	824.96167	-730.53992	1004.26239	743.57056	-1129.72363	1060.75061	922.26385	-913.32806	1075.88306	934.22925	-1061.66394	878.11450	943.20795	-916.60028	891.12573	948.51733	-1170.02515	978.90070	591.28876	-1152.62842	945.09839	459.30615	-1157.84229	846.79932	296.82559	-1107.44580	755.12048	98.41338	-1054.71899	702.39081	79.81393	-1114.01709	888.71741	37.94692	-845.58337	1082.64893	609.31769	-874.82733	1129.71509	460.73901	-865.28503	1121.99194	285.61038	-907.10559	1155.74280	81.49812	-958.16205	1115.73792	35.50637	-907.16064	1299.35474	66.23260	-974.41345	1028.48108	1711.85852	-3101.82275	1973.14990	1023.32275	-3140.67969	2012.52087	1022.10236			 
